HIERARCHY
ROOT hip
{
  OFFSET 0 0 0
  CHANNELS 6 Xposition Yposition Zposition Zrotation Yrotation Xrotation
  JOINT abdomen
  {
    OFFSET 0 20.6881 -0.73152
    CHANNELS 3 Zrotation Xrotation Yrotation
    JOINT chest
    {
      OFFSET 0 11.7043 -0.48768
      CHANNELS 3 Zrotation Xrotation Yrotation
      JOINT neck
      {
        OFFSET 0 22.1894 -2.19456
        CHANNELS 3 Zrotation Xrotation Yrotation
        JOINT head
        {
          OFFSET -0.24384 7.07133 1.2192
          CHANNELS 3 Zrotation Xrotation Yrotation
          JOINT leftEye
          {
            OFFSET 4.14528 8.04674 8.04672
            CHANNELS 3 Zrotation Xrotation Yrotation
            End Site
            {
              OFFSET 1 0 0
            }
          }
          JOINT rightEye
          {
            OFFSET -3.6576 8.04674 8.04672
            CHANNELS 3 Zrotation Xrotation Yrotation
            End Site
            {
              OFFSET 1 0 0
            }
          }
        }
      }
      JOINT rCollar
      {
        OFFSET -2.68224 19.2634 -4.8768
        CHANNELS 3 Zrotation Xrotation Yrotation
        JOINT rShldr
        {
          OFFSET -8.77824 -1.95073 1.46304
          CHANNELS 3 Zrotation Xrotation Yrotation
          JOINT rForeArm
          {
            OFFSET -28.1742 -1.7115 0.48768
            CHANNELS 3 Zrotation Xrotation Yrotation
            JOINT rHand
            {
              OFFSET -22.5879 0.773209 7.07136
              CHANNELS 3 Zrotation Xrotation Yrotation
              JOINT rThumb1
              {
                OFFSET -1.2192 -0.487915 3.41376
                CHANNELS 3 Zrotation Xrotation Yrotation
                JOINT rThumb2
                {
                  OFFSET -3.37035 -0.52449 3.41376
                  CHANNELS 3 Zrotation Xrotation Yrotation
                  End Site
                  {
                    OFFSET -1.78271 -1.18214 1.43049
                  }
                }
              }
              JOINT rIndex1
              {
                OFFSET -7.75947 0.938293 5.60832
                CHANNELS 3 Zrotation Xrotation Yrotation
                JOINT rIndex2
                {
                  OFFSET -2.54057 -0.884171 1.56538
                  CHANNELS 3 Zrotation Xrotation Yrotation
                  End Site
                  {
                    OFFSET -1.62519 -0.234802 1.16502
                  }
                }
              }
              JOINT rMid1
              {
                OFFSET -8.24714 1.18213 3.41376
                CHANNELS 3 Zrotation Xrotation Yrotation
                JOINT rMid2
                {
                  OFFSET -3.10165 -0.590103 1.0647
                  CHANNELS 3 Zrotation Xrotation Yrotation
                  End Site
                  {
                    OFFSET -2.48547 -0.328903 0.83742
                  }
                }
              }
              JOINT rRing1
              {
                OFFSET -8.82822 0.546677 1.51678
                CHANNELS 3 Zrotation Xrotation Yrotation
                JOINT rRing2
                {
                  OFFSET -2.60934 -0.819778 -0.0198488
                  CHANNELS 3 Zrotation Xrotation Yrotation
                  End Site
                  {
                    OFFSET -2.33842 -0.294052 0.168128
                  }
                }
              }
              JOINT rPinky1
              {
                OFFSET -8.27202 -0.0477905 -0.4584
                CHANNELS 3 Zrotation Xrotation Yrotation
                JOINT rPinky2
                {
                  OFFSET -1.82734 -0.647385 -0.700984
                  CHANNELS 3 Zrotation Xrotation Yrotation
                  End Site
                  {
                    OFFSET -1.69225 -0.51767 -0.607171
                  }
                }
              }
            }
          }
        }
      }
      JOINT lCollar
      {
        OFFSET 2.68224 19.2634 -4.8768
        CHANNELS 3 Zrotation Xrotation Yrotation
        JOINT lShldr
        {
          OFFSET 8.77824 -1.95073 1.46304
          CHANNELS 3 Zrotation Xrotation Yrotation
          JOINT lForeArm
          {
            OFFSET 28.1742 -1.7115 0.48768
            CHANNELS 3 Zrotation Xrotation Yrotation
            JOINT lHand
            {
              OFFSET 22.5879 0.773209 7.07136
              CHANNELS 3 Zrotation Xrotation Yrotation
              JOINT lThumb1
              {
                OFFSET 1.2192 -0.487915 3.41376
                CHANNELS 3 Zrotation Xrotation Yrotation
                JOINT lThumb2
                {
                  OFFSET 3.37035 -0.52449 3.41376
                  CHANNELS 3 Zrotation Xrotation Yrotation
                  End Site
                  {
                    OFFSET 1.78271 -1.18214 1.43049
                  }
                }
              }
              JOINT lIndex1
              {
                OFFSET 7.75947 0.938293 5.60832
                CHANNELS 3 Zrotation Xrotation Yrotation
                JOINT lIndex2
                {
                  OFFSET 2.54057 -0.884171 1.56538
                  CHANNELS 3 Zrotation Xrotation Yrotation
                  End Site
                  {
                    OFFSET 1.62519 -0.234802 1.16502
                  }
                }
              }
              JOINT lMid1
              {
                OFFSET 8.24714 1.18213 3.41376
                CHANNELS 3 Zrotation Xrotation Yrotation
                JOINT lMid2
                {
                  OFFSET 3.10165 -0.590103 1.0647
                  CHANNELS 3 Zrotation Xrotation Yrotation
                  End Site
                  {
                    OFFSET 2.48547 -0.328903 0.83742
                  }
                }
              }
              JOINT lRing1
              {
                OFFSET 8.82822 0.546677 1.51678
                CHANNELS 3 Zrotation Xrotation Yrotation
                JOINT lRing2
                {
                  OFFSET 2.60934 -0.819778 -0.0198488
                  CHANNELS 3 Zrotation Xrotation Yrotation
                  End Site
                  {
                    OFFSET 2.33842 -0.294052 0.168128
                  }
                }
              }
              JOINT lPinky1
              {
                OFFSET 8.27202 -0.0477905 -0.4584
                CHANNELS 3 Zrotation Xrotation Yrotation
                JOINT lPinky2
                {
                  OFFSET 1.82734 -0.647385 -0.700984
                  CHANNELS 3 Zrotation Xrotation Yrotation
                  End Site
                  {
                    OFFSET 1.69225 -0.51767 -0.607171
                  }
                }
              }
            }
          }
        }
      }
    }
  }
  JOINT rButtock
  {
    OFFSET -8.77824 4.35084 1.2192
    CHANNELS 3 Zrotation Xrotation Yrotation
    JOINT rThigh
    {
      OFFSET 0 -1.70687 -2.19456
      CHANNELS 3 Zrotation Xrotation Yrotation
      JOINT rShin
      {
        OFFSET 0 -36.8199 0.73152
        CHANNELS 3 Zrotation Xrotation Yrotation
        JOINT rFoot
        {
          OFFSET 0.73152 -45.1104 -5.12064
          CHANNELS 3 Zrotation Xrotation Yrotation
          End Site
          {
            OFFSET -1.1221 -3.69964 12.103
          }
        }
      }
    }
  }
  JOINT lButtock
  {
    OFFSET 8.77824 4.35084 1.2192
    CHANNELS 3 Zrotation Xrotation Yrotation
    JOINT lThigh
    {
      OFFSET 0 -1.70687 -2.19456
      CHANNELS 3 Zrotation Xrotation Yrotation
      JOINT lShin
      {
        OFFSET 0 -36.8199 0.73152
        CHANNELS 3 Zrotation Xrotation Yrotation
        JOINT lFoot
        {
          OFFSET -0.73152 -45.1104 -5.12064
          CHANNELS 3 Zrotation Xrotation Yrotation
          End Site
          {
            OFFSET 1.1221 -3.69964 12.103
          }
        }
      }
    }
  }
}
MOTION
Frames:	7
Frame Time:	0.00833333
-2.7423382 82.6362 0.5842045 6.710856 56.516994 14.788892 4.2790403 1.8457509 23.417597 -8.788147 -5.344337 6.407187 -1.9075787 17.528307 16.5527 0.017337285 -27.157204 32.641 -0.0 0.0 -0.0 -0.0 0.0 -0.0 -0.0 -0.0 -0.0 90.31919 47.640392 -1.3957984 -28.221004 -32.19298 70.805786 -0.09757282 -8.874081 -1.2573941 0.0 0.0 -0.0 0.0 0.0 -0.0 0.0 0.0 -0.0 7.7309012 5.4749126 0.41732216 0.0 0.0 -0.0 2.9055667 0.9650755 0.103008196 0.0 0.0 -0.0 10.278597 0.731881 0.026273511 0.0 0.0 -0.0 2.2216635 -0.73345095 -0.208321 -0.0 -0.0 -0.0 -84.406685 26.697702 16.075096 26.923306 -44.2174 -91.878494 0.50689054 19.811298 -2.90206 -0.0 0.0 -0.0 -0.0 0.0 -0.0 -0.0 0.0 -0.0 -7.7309012 5.4749126 -0.41732216 -0.0 0.0 -0.0 -2.9055667 0.9650755 -0.103008196 -0.0 0.0 -0.0 -10.278597 0.731881 -0.026273511 -0.0 0.0 -0.0 -2.2216635 -0.73345095 0.208321 -0.0 0.0 -0.0 -1.6038823 -21.182192 -11.021907 -0.1764089 36.326 0.7333173 1.3982637 -17.334795 5.7380505 0.0 0.0 0.0 -0.9666988 -39.38459 -3.9240434 0.9055426 57.652504 -1.509243 3.3392231 -11.101797 9.893595
-4.4726133 82.1801 0.8550726 4.665893 62.450993 13.729923 6.138366 1.465249 22.558662 -8.163666 -4.972643 6.2547097 -1.9354038 18.099497 16.114704 1.7860204 -26.402496 32.073902 -0.0 0.0 -0.0 -0.0 0.0 -0.0 -0.0 0.0 -0.0 84.0032 48.347095 9.309556 -28.0157 -30.746706 68.57091 -0.05124647 -7.273079 -1.0268555 -0.0 0.0 0.0 -0.0 0.0 0.0 -0.0 0.0 0.0 7.7309012 5.4749126 0.41732216 -0.0 0.0 0.0 2.9055667 0.9650755 0.103008196 -0.0 0.0 0.0 10.278597 0.731881 0.026273511 -0.0 0.0 0.0 2.2216635 -0.73345095 -0.208321 -0.0 0.0 -0.0 -83.201294 25.103296 17.634203 26.536594 -45.144596 -93.77059 0.5185191 19.754936 -2.895727 0.0 0.0 0.0 0.0 0.0 0.0 0.0 0.0 0.0 -7.7309012 5.4749126 -0.41732216 0.0 0.0 0.0 -2.9055667 0.9650755 -0.103008196 0.0 0.0 0.0 -10.278597 0.731881 -0.026273511 0.0 0.0 0.0 -2.2216635 -0.73345095 0.208321 -0.0 0.0 -0.0 0.62952656 -23.113214 -12.38409 -0.21889608 37.531456 0.6442598 -0.28913993 -18.09999 0.932956 0.0 0.0 0.0 1.2784735 -39.108395 1.3602827 1.5431515 66.01908 -2.091026 3.1618252 -5.121207 13.584203
-5.6764483 82.4922 0.9277471 9.839008 67.84699 17.950006 6.13959 1.2671952 21.901762 -6.8579245 -5.0325084 6.1457996 -2.7380757 17.863396 15.152409 3.9307532 -25.103094 30.589212 -0.0 0.0 -0.0 -0.0 0.0 -0.0 0.0 0.0 -0.0 78.51759 46.4758 17.874502 -27.162994 -26.833706 62.079594 -0.055472165 -5.7990265 -0.81866765 -0.0 0.0 0.0 -0.0 0.0 0.0 -0.0 0.0 0.0 7.7309012 5.4749126 0.41732216 -0.0 0.0 0.0 2.9055667 0.9650755 0.103008196 -0.0 0.0 0.0 10.278597 0.731881 0.026273511 -0.0 0.0 0.0 2.2216635 -0.73345095 -0.208321 0.0 0.0 -0.0 -81.89879 27.226208 15.506992 26.308798 -45.65119 -94.8089 0.48699677 19.437695 -2.8428497 -0.0 -0.0 -0.0 -0.0 -0.0 -0.0 -0.0 -0.0 -0.0 -7.7309012 5.4749126 -0.41732216 -0.0 -0.0 -0.0 -2.9055667 0.9650755 -0.103008196 -0.0 -0.0 -0.0 -10.278597 0.731881 -0.026273511 -0.0 -0.0 -0.0 -2.2216635 -0.73345095 0.208321 -0.0 0.0 -0.0 0.9153214 -23.934397 -14.389591 -0.25169748 38.041702 0.50709444 -1.4113003 -17.35308 -2.1098258 0.0 0.0 0.0 3.4941657 -33.973904 8.211427 1.8144664 68.070694 -2.1686428 1.3917134 2.3694432 13.730703
-6.671846 82.8918 -0.06624013 15.330952 75.11398 23.354935 4.365154 0.7140602 20.066586 -5.637587 -5.204035 5.6718507 -3.49849 17.005484 13.766304 5.9205217 -23.91428 28.315847 -0.0 0.0 -0.0 -0.0 0.0 -0.0 -0.0 0.0 -0.0 73.29269 42.2125 23.828398 -24.8003 -20.708788 51.980495 -0.008757933 -2.6711001 -0.3756504 -0.0 0.0 -0.0 -0.0 0.0 -0.0 -0.0 0.0 -0.0 7.7309012 5.4749126 0.41732216 -0.0 0.0 -0.0 2.9055667 0.9650755 0.103008196 -0.0 0.0 -0.0 10.278597 0.731881 0.026273511 -0.0 0.0 -0.0 2.2216635 -0.73345095 -0.208321 -0.0 0.0 -0.0 -80.12949 32.320488 11.1237 26.22419 -45.82551 -95.17831 0.49636352 19.61479 -2.870846 -0.0 -0.0 -0.0 -0.0 -0.0 -0.0 -0.0 -0.0 -0.0 -7.7309012 5.4749126 -0.41732216 -0.0 -0.0 -0.0 -2.9055667 0.9650755 -0.103008196 -0.0 -0.0 -0.0 -10.278597 0.731881 -0.026273511 -0.0 -0.0 -0.0 -2.2216635 -0.73345095 0.208321 -0.0 0.0 -0.0 -1.5793437 -24.296803 -18.493797 -0.28584403 38.281605 0.41884696 -2.2172437 -16.072903 -4.436494 0.0 0.0 0.0 2.5791752 -26.219925 13.3593445 1.3993392 63.7258 -1.6438273 0.44984385 6.262078 7.6602516
-7.5835824 83.2808 -2.6564803 50.989048 83.542984 60.056995 3.8981104 -1.2743961 15.798896 -5.9272833 -5.20194 4.4103 -4.3473 16.609907 12.111983 8.072421 -24.280098 25.6211 -0.0 0.0 -0.0 -0.0 0.0 -0.0 0.0 0.0 -0.0 71.58409 34.807102 23.456894 -21.314608 -14.764187 42.027905 -0.002652894 1.4714638 0.2065849 -0.0 0.0 -0.0 -0.0 0.0 -0.0 -0.0 0.0 -0.0 7.7309012 5.4749126 0.41732216 -0.0 0.0 -0.0 2.9055667 0.9650755 0.103008196 -0.0 0.0 -0.0 10.278597 0.731881 0.026273511 -0.0 0.0 -0.0 2.2216635 -0.73345095 -0.208321 0.0 0.0 -0.0 -77.1396 37.86109 5.052811 26.250792 -45.770798 -95.06239 0.52981746 20.231108 -2.9690654 -0.0 0.0 -0.0 -0.0 0.0 -0.0 -0.0 0.0 -0.0 -7.7309012 5.4749126 -0.41732216 -0.0 0.0 -0.0 -2.9055667 0.9650755 -0.103008196 -0.0 0.0 -0.0 -10.278597 0.731881 -0.026273511 -0.0 0.0 -0.0 -2.2216635 -0.73345095 0.208321 -0.0 0.0 -0.0 -2.8243182 -26.425898 -18.361712 -0.30804625 39.395298 0.54166824 -4.8437486 -16.4854 -11.7367 0.0 0.0 0.0 -0.36355564 -20.945608 14.24519 0.8126413 54.58409 -1.077407 0.5913094 3.4108286 2.21506
-8.543027 84.023 -5.4732203 126.16759 79.05909 135.8834 1.498691 -1.783247 10.787093 -6.521903 -5.504005 2.8886187 -5.7273765 16.027683 10.421006 9.467154 -25.1251 22.759111 -0.0 0.0 -0.0 -0.0 0.0 -0.0 -0.0 0.0 -0.0 71.23151 23.90381 17.840393 -18.239702 -10.934397 34.615498 -0.01036697 2.9060757 0.40869805 -0.0 0.0 -0.0 -0.0 0.0 -0.0 -0.0 0.0 -0.0 7.7309012 5.4749126 0.41732216 -0.0 0.0 -0.0 2.9055667 0.9650755 0.103008196 -0.0 0.0 -0.0 10.278597 0.731881 0.026273511 -0.0 0.0 -0.0 2.2216635 -0.73345095 -0.208321 -0.0 0.0 -0.0 -74.409386 43.3789 -1.0029857 26.195595 -45.880306 -95.29949 0.5163593 19.986103 -2.9298785 -0.0 0.0 0.0 -0.0 0.0 0.0 -0.0 0.0 0.0 -7.7309012 5.4749126 -0.41732216 -0.0 0.0 0.0 -2.9055667 0.9650755 -0.103008196 -0.0 0.0 0.0 -10.278597 0.731881 -0.026273511 -0.0 0.0 0.0 -2.2216635 -0.73345095 0.208321 -0.0 0.0 -0.0 -9.648858 -32.868893 -20.431896 -0.5307852 48.135693 0.91395 -6.1403556 -10.552024 -19.938599 0.0 0.0 0.0 -7.2264066 -16.376194 9.592011 0.4379326 44.0727 -0.7443215 0.82551897 0.29551432 3.202725
-7.2740197 83.441 -7.3683705 136.04767 70.498955 146.83778 -5.229394 -0.73518723 7.2272096 -5.6884027 -6.715921 1.86233 -6.9039745 15.208191 9.031314 10.236884 -25.634796 20.360003 -0.0 0.0 -0.0 -0.0 0.0 -0.0 -0.0 0.0 -0.0 69.0572 12.523518 9.25142 -15.981387 -8.659667 29.661894 -0.029006878 4.8547163 0.6842656 -0.0 0.0 -0.0 -0.0 0.0 -0.0 -0.0 0.0 -0.0 7.7309012 5.4749126 0.41732216 -0.0 0.0 -0.0 2.9055667 0.9650755 0.103008196 -0.0 0.0 -0.0 10.278597 0.731881 0.026273511 -0.0 0.0 -0.0 2.2216635 -0.73345095 -0.208321 -0.0 0.0 -0.0 -72.785 48.3949 -4.8153505 25.895391 -46.47891 -96.561 0.4574378 19.151838 -2.7950373 -0.0 -0.0 -0.0 -0.0 -0.0 -0.0 -0.0 -0.0 -0.0 -7.7309012 5.4749126 -0.41732216 -0.0 -0.0 -0.0 -2.9055667 0.9650755 -0.103008196 -0.0 -0.0 -0.0 -10.278597 0.731881 -0.026273511 -0.0 -0.0 -0.0 -2.2216635 -0.73345095 0.208321 -0.0 0.0 -0.0 -26.886402 -44.6243 -31.621294 -1.3065268 63.433693 1.7685566 -4.6488767 -1.19463 -29.093504 0.0 0.0 0.0 -15.232897 -11.367881 3.5245693 0.21705458 35.47799 -0.72443026 0.79633534 -2.0791562 0.67351174
